<svg width="22" height="22" viewBox="0 0 22 22" fill="none" xmlns="http://www.w3.org/2000/svg">
<path d="M15.7143 5.71429H14.4286V4.32143C14.4286 4.14464 14.2839 4 14.1071 4H13.0357C12.8589 4 12.7143 4.14464 12.7143 4.32143V5.71429H9.28571V4.32143C9.28571 4.14464 9.14107 4 8.96429 4H7.89286C7.71607 4 7.57143 4.14464 7.57143 4.32143V5.71429H6.28571C5.57589 5.71429 5 6.29018 5 7V16.4286C5 17.1384 5.57589 17.7143 6.28571 17.7143H15.7143C16.4241 17.7143 17 17.1384 17 16.4286V7C17 6.29018 16.4241 5.71429 15.7143 5.71429ZM15.5536 16.4286H6.44643C6.35804 16.4286 6.28571 16.3562 6.28571 16.2679V8.28571H15.7143V16.2679C15.7143 16.3562 15.642 16.4286 15.5536 16.4286Z" fill="#B1B7CE"/>
</svg>
