<svg width="22" height="22" viewBox="0 0 22 22" fill="none" xmlns="http://www.w3.org/2000/svg">
<g clip-path="url(#clip0_418_4427)">
<path d="M3.18007 16.2226C2.66735 17.1113 3.31094 18.2222 4.33499 18.2222H17.6652C18.6912 18.2222 19.3318 17.1096 18.8201 16.2226L12.1549 4.66625C11.6419 3.77711 10.3571 3.77872 9.84508 4.66625L3.18007 16.2226ZM11 13.8333C11.7057 13.8333 12.2778 14.4054 12.2778 15.1111C12.2778 15.8168 11.7057 16.3889 11 16.3889C10.2943 16.3889 9.72221 15.8168 9.72221 15.1111C9.72221 14.4054 10.2943 13.8333 11 13.8333ZM12.2131 9.24039L12.0071 13.0182C11.9974 13.1949 11.8513 13.3333 11.6742 13.3333H10.3257C10.1487 13.3333 10.0025 13.1949 9.99291 13.0182L9.78685 9.24039C9.77644 9.04944 9.92846 8.88889 10.1197 8.88889H11.8803C12.0715 8.88889 12.2235 9.04944 12.2131 9.24039Z" fill="#BE1F2E"/>
</g>
<defs>
<clipPath id="clip0_418_4427">
<rect width="16" height="14.2222" fill="white" transform="matrix(-1 0 0 1 19 4)"/>
</clipPath>
</defs>
</svg>
