<svg width="22" height="22" viewBox="0 0 22 22" fill="none" xmlns="http://www.w3.org/2000/svg">
<path d="M15.8644 6.67916L13.5707 4.38547C13.3247 4.13943 12.9912 4 12.644 4H7.0642C6.33973 4.00273 5.75195 4.59051 5.75195 5.31498V16.6878C5.75195 17.4122 6.33973 18 7.0642 18H14.9377C15.6621 18 16.2499 17.4122 16.2499 16.6878V7.60867C16.2499 7.26147 16.1105 6.92521 15.8644 6.67916ZM14.831 7.50205H12.7506V5.4216L14.831 7.50205ZM7.0642 16.6878V5.31498H11.4383V8.15817C11.4383 8.52177 11.7309 8.81429 12.0945 8.81429H14.9377V16.6878H7.0642Z" fill="#B1B7CE"/>
</svg>
