<svg width="126" height="32" viewBox="0 0 126 32" fill="none" xmlns="http://www.w3.org/2000/svg">
<g clip-path="url(#clip0_1903_43864)">
<path d="M91.8748 12.798H87.3006C87.4158 10.91 88.2149 9.53605 90.0461 9.53605C91.4765 9.53605 92.5061 10.4512 92.5061 12.0533C92.5036 12.3968 92.3909 12.798 91.8748 12.798ZM90.1589 7.41744C86.7269 7.41744 84.4398 9.9347 84.4398 13.2543C84.4398 17.662 86.8998 19.8358 90.3292 19.8358C92.2155 19.8358 94.3323 19.2641 94.3323 17.8325V17.0302C93.4756 17.3737 92.5011 17.6018 91.4715 17.6018C89.0691 17.6018 87.754 16.5713 87.3532 14.7411H93.3002C94.2722 14.7411 95.2441 14.3399 95.2441 13.0236C95.2491 9.70655 93.4179 7.41744 90.1589 7.41744ZM113.722 17.9478C112.577 17.9478 112.121 17.1455 112.121 16.2304C112.121 15.3729 112.692 14.7987 113.722 14.6282L116.409 14.2848C116.294 16.0022 115.267 17.9503 113.722 17.9478ZM119.556 18.522L119.155 12.2263C118.869 8.21976 116.409 7.53278 114.295 7.53278C112.579 7.53278 110.177 8.21976 110.177 9.65139V10.5089C111.091 10.1077 112.063 9.76421 113.15 9.76421C114.866 9.76421 116.239 10.3359 116.352 12.4545L113.378 12.8556C110.347 13.1991 109.09 14.4578 109.09 16.2905C109.09 18.008 110.119 19.8959 112.522 19.8959C114.408 19.8959 115.723 19.0936 116.64 17.6068V19.7806C118.697 19.7806 119.669 19.7781 119.556 18.522ZM78.2648 7.47511C76.5488 7.47511 75.0057 8.27742 73.9761 9.87955V7.70578C71.689 7.70578 71.2882 7.70578 71.2882 9.1374V19.6101H73.9761V13.3119C73.9761 11.0228 75.5769 9.87704 77.0649 9.87704C78.608 9.87704 79.352 11.0228 79.352 12.7378V19.6051C81.812 19.6051 82.0976 19.6051 82.0976 18.2311V11.424C82.0951 8.84907 80.7799 7.47511 78.2648 7.47511ZM107.887 7.76093H104.914C104.343 8.90674 103.541 10.4512 102.627 11.7675L99.5954 7.76093H96.5067V8.04676L100.51 13.6554C98.7938 15.3729 97.6515 17.0903 96.3363 19.6653H99.4251C100.227 17.9478 100.968 16.8045 101.943 15.5434L104.974 19.7204H108.12V19.3794L104.117 13.8861C105.603 12.1686 106.978 10.1077 108.005 7.87627L107.887 7.76093ZM62.9363 17.4915C61.05 17.4915 60.0755 15.5459 60.0755 13.3721C60.0755 11.2535 60.8771 9.76672 62.9363 9.76672C65.1082 9.76672 65.9674 11.3112 65.9674 13.4875C65.9674 15.6061 64.9955 17.494 62.9939 17.494H62.9363V17.4915ZM62.9363 7.41744C59.334 7.41744 57.2172 9.70655 57.2172 13.3696C57.2172 17.2032 59.5044 19.8358 62.9363 19.8358C66.4835 19.8358 68.8257 17.2032 68.8257 13.4248C68.8282 9.65139 66.6538 7.41744 62.9363 7.41744ZM34.6266 12.2263H33.369V6.27415H34.9121C36.8561 6.27415 38.6873 6.84579 38.6873 8.90674C38.6873 11.0253 37.0865 12.2263 34.6842 12.2263H34.6266ZM35.0274 3.75438H33.3114C30.909 3.75438 30.4531 3.75438 30.4531 5.24117V19.5499H33.3114V14.6282H34.9121C38.9152 14.6282 41.776 12.5096 41.776 8.90423C41.776 5.1835 38.9854 3.75438 35.0374 3.75438H35.0274ZM51.0423 7.41744C49.3263 7.41744 47.7832 8.21976 46.7536 9.82188V3.69922C44.4665 3.69922 44.0657 3.69922 44.0657 5.18601V19.6653H46.7536V13.3696C46.7536 11.0805 48.2967 9.9347 49.7847 9.9347C51.3855 9.9347 52.1871 11.0805 52.1871 12.7955V19.6628C54.4742 19.6628 54.875 19.6628 54.875 18.2888V11.424C54.875 8.84907 53.4446 7.41744 50.9871 7.41744H51.0423Z" fill="#373D3F"/>
<path d="M124.361 9.93269C123.97 10.3263 123.496 10.5244 122.94 10.5244C122.384 10.5244 121.913 10.3263 121.522 9.93269C121.134 9.54156 120.941 9.06519 120.941 8.50858C120.941 7.95699 121.137 7.48313 121.527 7.092C121.918 6.70087 122.389 6.50781 122.94 6.50781C123.496 6.50781 123.97 6.70338 124.361 7.092C124.751 7.48313 124.947 7.95449 124.947 8.50858C124.949 9.06268 124.754 9.53906 124.361 9.93269ZM121.723 7.28756C121.387 7.62604 121.219 8.03221 121.219 8.50858C121.219 8.98997 121.387 9.40116 121.72 9.73963C122.056 10.0781 122.462 10.2486 122.943 10.2486C123.424 10.2486 123.83 10.0781 124.163 9.73963C124.498 9.40116 124.666 8.98997 124.666 8.50858C124.666 8.03221 124.498 7.62353 124.163 7.28756C123.827 6.94909 123.419 6.77859 122.943 6.77859C122.464 6.77859 122.058 6.94909 121.723 7.28756ZM122.903 7.40039C123.176 7.40039 123.376 7.42797 123.504 7.48062C123.732 7.57589 123.845 7.76143 123.845 8.03973C123.845 8.2378 123.772 8.38072 123.629 8.47599C123.554 8.52613 123.446 8.56124 123.311 8.5838C123.484 8.61138 123.609 8.68409 123.689 8.79942C123.769 8.91476 123.809 9.03009 123.809 9.14041V9.30087C123.809 9.35101 123.812 9.40617 123.814 9.46384C123.817 9.52151 123.824 9.55911 123.835 9.57917L123.847 9.60675H123.484C123.481 9.59923 123.481 9.59171 123.479 9.58419C123.476 9.57666 123.476 9.56914 123.474 9.55911L123.466 9.48891V9.31341C123.466 9.06018 123.396 8.88968 123.258 8.80945C123.176 8.76181 123.033 8.73925 122.827 8.73925H122.522V9.60675H122.134V7.40289H122.903V7.40039ZM123.321 7.74639C123.223 7.69123 123.065 7.66365 122.85 7.66365H122.519V8.46095H122.87C123.035 8.46095 123.158 8.4434 123.241 8.4108C123.394 8.35063 123.469 8.2353 123.469 8.06731C123.469 7.90936 123.419 7.80154 123.321 7.74639Z" fill="#373D3F"/>
<path d="M9.33297 0.0542583C12.1812 -0.236581 14.8792 0.658501 16.9409 2.33835C18.9975 4.01819 20.4154 6.48781 20.706 9.35107C20.9966 12.2043 20.1022 14.9071 18.4239 16.9706C17.0636 18.6404 15.1848 19.8915 12.9979 20.4606C12.8426 20.6988 12.6772 20.932 12.4969 21.1501C11.2468 22.687 9.41063 23.7451 7.28633 23.9632L7.20116 23.9732V23.9682C5.65303 24.1086 4.16753 23.7777 2.88494 23.0932C2.93253 23.0406 2.97762 22.9879 3.02271 22.9353C3.66652 22.153 4.01472 21.1225 3.90951 20.0344C3.85189 19.4276 3.66151 18.8685 3.36841 18.3796C3.35338 18.3545 3.33835 18.3295 3.32082 18.3044C3.163 18.0637 2.97762 17.8155 2.77471 17.5522C2.26618 16.8928 1.77519 16.2811 1.35935 15.5464C0.665447 14.3254 0.20702 12.9389 0.0542114 11.4471C-0.236376 8.59389 0.657932 5.89109 2.33633 3.82764C4.00971 1.76419 6.47469 0.345097 9.33297 0.0542583ZM12.2789 8.05734C11.6827 7.56843 10.8961 7.31019 10.067 7.39543C9.2453 7.47817 8.53135 7.89186 8.04286 8.4936C7.55688 9.09283 7.29635 9.87759 7.38153 10.71C7.46419 11.5324 7.87753 12.2469 8.47875 12.7358C9.07495 13.2222 9.86154 13.483 10.6907 13.3977C11.5124 13.3125 12.2263 12.8988 12.7148 12.2996C13.2008 11.7029 13.4613 10.9156 13.3761 10.0832C13.291 9.26081 12.8801 8.54625 12.2789 8.05734ZM10.4628 17.116C10.4728 17.116 10.4828 17.116 10.4878 17.116C10.6732 17.1135 10.8636 17.1034 11.0514 17.0834C12.9002 16.8953 14.4934 15.9777 15.5756 14.6463C16.6603 13.3125 17.239 11.5675 17.0511 9.72465C16.8632 7.87181 15.9463 6.2747 14.6187 5.19158C13.2885 4.10344 11.5449 3.52677 9.70623 3.71482C7.85749 3.90286 6.26427 4.82051 5.18208 6.15185C4.09739 7.48569 3.52122 9.23073 3.7066 11.0735C3.77924 11.7756 3.9546 12.44 4.21763 13.0543C4.70862 14.2001 5.53279 15.0876 6.2292 16.1432C6.92811 17.1661 7.38403 18.3746 7.50928 19.6959C7.52682 19.8689 7.53684 20.0394 7.54185 20.2074V20.2124C8.37854 19.9968 9.0975 19.5229 9.62356 18.8861C10.0369 18.3796 10.33 17.7754 10.4628 17.116Z" fill="#4D7EBF"/>
<path d="M62.7759 23.6239V31.9999H61.0959V28.4359H57.5079V31.9999H55.8279V23.6239H57.5079V27.0679H61.0959V23.6239H62.7759Z" fill="#426FB3"/>
<path d="M68.7494 31.9999L66.9014 28.7359H66.1094V31.9999H64.4294V23.6239H67.5734C68.2214 23.6239 68.7734 23.7399 69.2294 23.9719C69.6854 24.1959 70.0254 24.5039 70.2494 24.8959C70.4814 25.2799 70.5974 25.7119 70.5974 26.1919C70.5974 26.7439 70.4374 27.2439 70.1174 27.6919C69.7974 28.1319 69.3214 28.4359 68.6894 28.6039L70.6934 31.9999H68.7494ZM66.1094 27.4759H67.5134C67.9694 27.4759 68.3094 27.3679 68.5334 27.1519C68.7574 26.9279 68.8694 26.6199 68.8694 26.2279C68.8694 25.8439 68.7574 25.5479 68.5334 25.3399C68.3094 25.1239 67.9694 25.0159 67.5134 25.0159H66.1094V27.4759Z" fill="#426FB3"/>
<path d="M81.0843 26.2159C81.0843 26.6639 80.9763 27.0839 80.7603 27.4759C80.5523 27.8679 80.2203 28.1839 79.7643 28.4239C79.3163 28.6639 78.7483 28.7839 78.0603 28.7839H76.6563V31.9999H74.9763V23.6239H78.0603C78.7083 23.6239 79.2603 23.7359 79.7163 23.9599C80.1723 24.1839 80.5123 24.4919 80.7363 24.8839C80.9683 25.2759 81.0843 25.7199 81.0843 26.2159ZM77.9883 27.4279C78.4523 27.4279 78.7963 27.3239 79.0203 27.1159C79.2443 26.8999 79.3563 26.5999 79.3563 26.2159C79.3563 25.3999 78.9003 24.9919 77.9883 24.9919H76.6563V27.4279H77.9883Z" fill="#426FB3"/>
<path d="M86.1651 32.0839C85.3811 32.0839 84.6611 31.8999 84.0051 31.5319C83.3491 31.1639 82.8291 30.6559 82.4451 30.0079C82.0611 29.3519 81.8691 28.6119 81.8691 27.7879C81.8691 26.9719 82.0611 26.2399 82.4451 25.5919C82.8291 24.9359 83.3491 24.4239 84.0051 24.0559C84.6611 23.6879 85.3811 23.5039 86.1651 23.5039C86.9571 23.5039 87.6771 23.6879 88.3251 24.0559C88.9811 24.4239 89.4971 24.9359 89.8731 25.5919C90.2571 26.2399 90.4491 26.9719 90.4491 27.7879C90.4491 28.6119 90.2571 29.3519 89.8731 30.0079C89.4971 30.6559 88.9811 31.1639 88.3251 31.5319C87.6691 31.8999 86.9491 32.0839 86.1651 32.0839ZM86.1651 30.5839C86.6691 30.5839 87.1131 30.4719 87.4971 30.2479C87.8811 30.0159 88.1811 29.6879 88.3971 29.2639C88.6131 28.8399 88.7211 28.3479 88.7211 27.7879C88.7211 27.2279 88.6131 26.7399 88.3971 26.3239C88.1811 25.8999 87.8811 25.5759 87.4971 25.3519C87.1131 25.1279 86.6691 25.0159 86.1651 25.0159C85.6611 25.0159 85.2131 25.1279 84.8211 25.3519C84.4371 25.5759 84.1371 25.8999 83.9211 26.3239C83.7051 26.7399 83.5971 27.2279 83.5971 27.7879C83.5971 28.3479 83.7051 28.8399 83.9211 29.2639C84.1371 29.6879 84.4371 30.0159 84.8211 30.2479C85.2131 30.4719 85.6611 30.5839 86.1651 30.5839Z" fill="#426FB3"/>
<path d="M96.019 31.9999L94.171 28.7359H93.379V31.9999H91.699V23.6239H94.843C95.491 23.6239 96.043 23.7399 96.499 23.9719C96.955 24.1959 97.295 24.5039 97.519 24.8959C97.751 25.2799 97.867 25.7119 97.867 26.1919C97.867 26.7439 97.707 27.2439 97.387 27.6919C97.067 28.1319 96.591 28.4359 95.959 28.6039L97.963 31.9999H96.019ZM93.379 27.4759H94.783C95.239 27.4759 95.579 27.3679 95.803 27.1519C96.027 26.9279 96.139 26.6199 96.139 26.2279C96.139 25.8439 96.027 25.5479 95.803 25.3399C95.579 25.1239 95.239 25.0159 94.783 25.0159H93.379V27.4759Z" fill="#426FB3"/>
<path d="M105.086 23.6239V24.9799H102.854V31.9999H101.174V24.9799H98.9425V23.6239H105.086Z" fill="#426FB3"/>
<path d="M111.448 30.4039H108.112L107.56 31.9999H105.796L108.808 23.6119H110.764L113.776 31.9999H112L111.448 30.4039ZM110.992 29.0599L109.78 25.5559L108.568 29.0599H110.992Z" fill="#426FB3"/>
<path d="M116.582 30.6679H119.342V31.9999H114.902V23.6239H116.582V30.6679Z" fill="#426FB3"/>
</g>
<defs>
<clipPath id="clip0_1903_43864">
<rect width="126" height="32" fill="white"/>
</clipPath>
</defs>
</svg>
