<svg width="22" height="22" viewBox="0 0 22 22" fill="none" xmlns="http://www.w3.org/2000/svg">
<path d="M18.8898 17.6524L15.0963 13.8588C15.0244 13.787 14.9307 13.7495 14.8307 13.7495H14.4182C15.4025 12.6089 15.9994 11.1246 15.9994 9.49968C15.9994 5.90923 13.0901 3 9.49968 3C5.90923 3 3 5.90923 3 9.49968C3 13.0901 5.90923 15.9994 9.49968 15.9994C11.1246 15.9994 12.6089 15.4025 13.7495 14.4182V14.8307C13.7495 14.9307 13.7901 15.0244 13.8588 15.0963L17.6524 18.8898C17.7993 19.0367 18.0368 19.0367 18.1836 18.8898L18.8898 18.1836C19.0367 18.0368 19.0367 17.7993 18.8898 17.6524ZM9.49968 14.4994C6.73732 14.4994 4.49993 12.262 4.49993 9.49968C4.49993 6.73732 6.73732 4.49993 9.49968 4.49993C12.262 4.49993 14.4994 6.73732 14.4994 9.49968C14.4994 12.262 12.262 14.4994 9.49968 14.4994Z" fill="#B1B7CE"/>
</svg>
