<svg width="44" height="50" viewBox="0 0 44 50" fill="none" xmlns="http://www.w3.org/2000/svg">
<g clip-path="url(#clip0_996_82049)">
<path d="M42.5781 15.625H1.17188C0.527344 15.625 0 15.0977 0 14.4531V10.9375C0 8.34961 2.09961 6.25 4.6875 6.25H9.375V1.17188C9.375 0.527344 9.90234 0 10.5469 0H14.4531C15.0977 0 15.625 0.527344 15.625 1.17188V6.25H28.125V1.17188C28.125 0.527344 28.6523 0 29.2969 0H33.2031C33.8477 0 34.375 0.527344 34.375 1.17188V6.25H39.0625C41.6504 6.25 43.75 8.34961 43.75 10.9375V14.4531C43.75 15.0977 43.2227 15.625 42.5781 15.625ZM1.17188 18.75H42.5781C43.2227 18.75 43.75 19.2773 43.75 19.9219V45.3125C43.75 47.9004 41.6504 50 39.0625 50H4.6875C2.09961 50 0 47.9004 0 45.3125V19.9219C0 19.2773 0.527344 18.75 1.17188 18.75ZM21.5234 29.4531L12.2461 38.7305L11.7188 43.4375C11.6504 44.0625 12.1777 44.5996 12.8125 44.5312L17.5195 44.0039L26.7969 34.7266C26.9922 34.5312 26.9922 34.2188 26.7969 34.0234L22.2266 29.4531C22.0312 29.2578 21.7188 29.2578 21.5234 29.4531ZM32.2363 26.4941L29.7559 24.0137C28.9844 23.2422 27.7344 23.2422 26.9629 24.0137L24.4238 26.5527C24.2285 26.748 24.2285 27.0605 24.4238 27.2559L28.9941 31.8262C29.1895 32.0215 29.502 32.0215 29.6973 31.8262L32.2363 29.2871C33.0078 28.5156 33.0078 27.2656 32.2363 26.4941Z" fill="#B1B7CE"/>
</g>
<defs>
<clipPath id="clip0_996_82049">
<rect width="43.75" height="50" fill="white"/>
</clipPath>
</defs>
</svg>
