<svg width="22" height="22" viewBox="0 0 22 22" fill="none" xmlns="http://www.w3.org/2000/svg">
<path d="M5 6.3125V11.9375C5 12.2482 5.25184 12.5 5.5625 12.5H7.4375C7.74816 12.5 8 12.2482 8 11.9375V6.3125C8 6.00184 7.74816 5.75 7.4375 5.75H5.5625C5.25184 5.75 5 6.00184 5 6.3125ZM5.9375 11C5.9375 10.6893 6.18934 10.4375 6.5 10.4375C6.81066 10.4375 7.0625 10.6893 7.0625 11C7.0625 11.3107 6.81066 11.5625 6.5 11.5625C6.18934 11.5625 5.9375 11.3107 5.9375 11ZM12.3125 17C11.8395 17 11.6214 16.0791 11.5172 15.6454C11.3952 15.1376 11.2691 14.6125 10.9221 14.2649C10.1611 13.5026 9.76187 12.5313 8.83341 11.6139C8.80699 11.5878 8.78602 11.5567 8.7717 11.5224C8.75739 11.4881 8.75002 11.4513 8.75002 11.4142V6.40393C8.75002 6.25063 8.87291 6.12554 9.02619 6.12273C9.39723 6.11593 9.8862 5.90994 10.2602 5.74355C11.0044 5.41245 11.9307 5.0004 13.0624 5H13.129C14.1316 5 15.3172 5.00968 15.7956 5.69696C15.9923 5.97955 16.0404 6.33057 15.9397 6.74302C16.322 7.1427 16.5271 7.88825 16.3237 8.49514C16.7349 9.04433 16.7723 9.81073 16.5418 10.3577L16.5444 10.3603C16.8231 10.6403 17.002 11.0929 17 11.5133C16.9963 12.2247 16.3869 12.875 15.6042 12.875H13.2201C13.3913 13.5392 14 14.0968 14 15.091C14 16.8125 12.875 17 12.3125 17Z" fill="white"/>
</svg>
