<svg width="22" height="22" viewBox="0 0 22 22" fill="none" xmlns="http://www.w3.org/2000/svg">
<path d="M7.4375 10.25H5.5625C5.25184 10.25 5 10.5018 5 10.8125V16.4375C5 16.7482 5.25184 17 5.5625 17H7.4375C7.74816 17 8 16.7482 8 16.4375V10.8125C8 10.5018 7.74816 10.25 7.4375 10.25ZM6.5 16.0625C6.18934 16.0625 5.9375 15.8107 5.9375 15.5C5.9375 15.1893 6.18934 14.9375 6.5 14.9375C6.81066 14.9375 7.0625 15.1893 7.0625 15.5C7.0625 15.8107 6.81066 16.0625 6.5 16.0625ZM14 6.90903C14 7.90316 13.3913 8.46078 13.2201 9.125H15.6042C16.3869 9.125 16.9963 9.7753 17 10.4867C17.0019 10.9071 16.8231 11.3597 16.5444 11.6397L16.5418 11.6423C16.7723 12.1893 16.7349 12.9557 16.3236 13.5049C16.5271 14.1118 16.322 14.8573 15.9397 15.257C16.0404 15.6694 15.9923 16.0205 15.7956 16.303C15.3172 16.9903 14.1316 17 13.129 17L13.0624 17C11.9306 16.9996 11.0044 16.5875 10.2602 16.2564C9.88618 16.09 9.39718 15.8841 9.02616 15.8773C8.87288 15.8744 8.75 15.7494 8.75 15.596V10.5858C8.75 10.5108 8.78005 10.4388 8.83339 10.3861C9.76184 9.46866 10.1611 8.49734 10.9221 7.73506C11.269 7.38744 11.3952 6.86234 11.5172 6.35455C11.6214 5.92093 11.8395 5 12.3125 5C12.875 5 14 5.1875 14 6.90903Z" fill="white"/>
</svg>
